<svg width="512" height="512" xmlns="http://www.w3.org/2000/svg" stroke-width="0" fill="#3FDBB1" stroke="currentColor">

 <g>
  <path canvas-opacity="1" transform="rotate(45, 256, 256)" id="svg_1" d="m256,48c-114.9,0 -208,93.1 -208,208s93.1,208 208,208s208,-93.1 208,-208s-93.1,-208 -208,-208zm52.7,283.3l-52.7,-52.7l-52.7,52.7c-6.2,6.2 -16.4,6.2 -22.6,0c-3.1,-3.1 -4.7,-7.2 -4.7,-11.3c0,-4.1 1.6,-8.2 4.7,-11.3l52.7,-52.7l-52.7,-52.7c-3.1,-3.1 -4.7,-7.2 -4.7,-11.3c0,-4.1 1.6,-8.2 4.7,-11.3c6.2,-6.2 16.4,-6.2 22.6,0l52.7,52.7l52.7,-52.7c6.2,-6.2 16.4,-6.2 22.6,0c6.2,6.2 6.2,16.4 0,22.6l-52.7,52.7l52.7,52.7c6.2,6.2 6.2,16.4 0,22.6c-6.2,6.3 -16.4,6.3 -22.6,0z"/>
  <rect id="svg_2" height="100" width="172" y="140" x="147"/>
  <rect id="svg_3" height="142" width="103" y="272" x="209"/>
 </g>
</svg>